<svg version="1.1" xmlns="http://www.w3.org/2000/svg" xmlns:xlink="http://www.w3.org/1999/xlink" width="764" height="603"><defs></defs><g><g transform="translate(-62,-14) scale(1,1)"><rect fill="#C0C0C0" stroke="none" x="279" y="31" width="376" height="568" opacity="0.2"></rect></g><g transform="translate(-62,-14) scale(1,1)"><rect fill="#ffffff" stroke="none" x="272" y="24" width="376" height="568"></rect></g><g transform="translate(-62,-14) scale(1,1)"><path fill="none" stroke="#000000" d="M 272 24 L 648 24 L 648 592 L 272 592 L 272 24 Z Z" stroke-miterlimit="10"></path></g><g transform="translate(-62,-14) scale(1,1)"><g><path fill="none" stroke="none"></path><text fill="#000000" stroke="none" font-family="Arial" font-size="13px" font-style="normal" font-weight="bold" text-decoration="none" x="383" y="43.5">OPD management system</text></g></g><g transform="translate(-62,-14) scale(1,1)"><path fill="#ffffff" stroke="none" d="M 90.32072727272727 105.68 C 90.32072727272727 100.886167936 94.20656959767273 97 99 97 C 103.79343040232727 97 107.67927272727273 100.886167936 107.67927272727273 105.68 C 107.67927272727273 110.473832064 103.79343040232727 114.36 99 114.36 C 94.20656959767273 114.36 90.32072727272727 110.473832064 90.32072727272727 105.68 Z"></path></g><g transform="translate(-62,-14) scale(1,1)"><path fill="none" stroke="#000000" d="M 90.32072727272727 105.68 C 90.32072727272727 100.886167936 94.20656959767273 97 99 97 C 103.79343040232727 97 107.67927272727273 100.886167936 107.67927272727273 105.68 C 107.67927272727273 110.473832064 103.79343040232727 114.36 99 114.36 C 94.20656959767273 114.36 90.32072727272727 110.473832064 90.32072727272727 105.68 Z" stroke-miterlimit="10"></path></g><g transform="translate(-62,-14) scale(1,1)"><path fill="none" stroke="#000000" d="M 99 114.36 L 99 131.64" stroke-miterlimit="10"></path></g><g transform="translate(-62,-14) scale(1,1)"><path fill="none" stroke="#000000" d="M 89.81018181818182 120.84 L 108.18981818181818 120.84" stroke-miterlimit="10"></path></g><g transform="translate(-62,-14) scale(1,1)"><path fill="none" stroke="#000000" d="M 99 131.64 L 86.23636363636363 149" stroke-miterlimit="10"></path></g><g transform="translate(-62,-14) scale(1,1)"><path fill="none" stroke="#000000" d="M 99 131.64 L 111.76363636363637 149" stroke-miterlimit="10"></path></g><g transform="translate(-62,-14) scale(1,1)"><g><path fill="none" stroke="none"></path><text fill="#000000" stroke="none" font-family="Arial" font-size="13px" font-style="normal" font-weight="bold" text-decoration="none" x="78.5" y="169.5">Patient</text></g></g><g transform="translate(-62,-14) scale(1,1)"><path fill="#ffffff" stroke="none" d="M 696.3207272727273 121.68 C 696.3207272727273 116.886167936 700.2065695976727 113 705 113 C 709.7934304023273 113 713.6792727272727 116.886167936 713.6792727272727 121.68 C 713.6792727272727 126.473832064 709.7934304023273 130.36 705 130.36 C 700.2065695976727 130.36 696.3207272727273 126.473832064 696.3207272727273 121.68 Z"></path></g><g transform="translate(-62,-14) scale(1,1)"><path fill="none" stroke="#000000" d="M 696.3207272727273 121.68 C 696.3207272727273 116.886167936 700.2065695976727 113 705 113 C 709.7934304023273 113 713.6792727272727 116.886167936 713.6792727272727 121.68 C 713.6792727272727 126.473832064 709.7934304023273 130.36 705 130.36 C 700.2065695976727 130.36 696.3207272727273 126.473832064 696.3207272727273 121.68 Z" stroke-miterlimit="10"></path></g><g transform="translate(-62,-14) scale(1,1)"><path fill="none" stroke="#000000" d="M 705 130.36 L 705 147.64" stroke-miterlimit="10"></path></g><g transform="translate(-62,-14) scale(1,1)"><path fill="none" stroke="#000000" d="M 695.8101818181818 136.84 L 714.1898181818182 136.84" stroke-miterlimit="10"></path></g><g transform="translate(-62,-14) scale(1,1)"><path fill="none" stroke="#000000" d="M 705 147.64 L 692.2363636363636 165" stroke-miterlimit="10"></path></g><g transform="translate(-62,-14) scale(1,1)"><path fill="none" stroke="#000000" d="M 705 147.64 L 717.7636363636364 165" stroke-miterlimit="10"></path></g><g transform="translate(-62,-14) scale(1,1)"><g><path fill="none" stroke="none"></path><text fill="#000000" stroke="none" font-family="Arial" font-size="13px" font-style="normal" font-weight="bold" text-decoration="none" x="686" y="185.5">Doctor</text></g></g><g transform="translate(-62,-14) scale(1,1)"><path fill="#ffffff" stroke="none" d="M 701.3207272727273 353.68 C 701.3207272727273 348.886167936 705.2065695976727 345 710 345 C 714.7934304023273 345 718.6792727272727 348.886167936 718.6792727272727 353.68 C 718.6792727272727 358.473832064 714.7934304023273 362.36 710 362.36 C 705.2065695976727 362.36 701.3207272727273 358.473832064 701.3207272727273 353.68 Z"></path></g><g transform="translate(-62,-14) scale(1,1)"><path fill="none" stroke="#000000" d="M 701.3207272727273 353.68 C 701.3207272727273 348.886167936 705.2065695976727 345 710 345 C 714.7934304023273 345 718.6792727272727 348.886167936 718.6792727272727 353.68 C 718.6792727272727 358.473832064 714.7934304023273 362.36 710 362.36 C 705.2065695976727 362.36 701.3207272727273 358.473832064 701.3207272727273 353.68 Z" stroke-miterlimit="10"></path></g><g transform="translate(-62,-14) scale(1,1)"><path fill="none" stroke="#000000" d="M 710 362.36 L 710 379.64" stroke-miterlimit="10"></path></g><g transform="translate(-62,-14) scale(1,1)"><path fill="none" stroke="#000000" d="M 700.8101818181818 368.84 L 719.1898181818182 368.84" stroke-miterlimit="10"></path></g><g transform="translate(-62,-14) scale(1,1)"><path fill="none" stroke="#000000" d="M 710 379.64 L 697.2363636363636 397" stroke-miterlimit="10"></path></g><g transform="translate(-62,-14) scale(1,1)"><path fill="none" stroke="#000000" d="M 710 379.64 L 722.7636363636364 397" stroke-miterlimit="10"></path></g><g transform="translate(-62,-14) scale(1,1)"><g><path fill="none" stroke="none"></path><text fill="#000000" stroke="none" font-family="Arial" font-size="13px" font-style="normal" font-weight="bold" text-decoration="none" x="686" y="417.5">Chemist</text></g></g><g transform="translate(-62,-14) scale(1,1)"><path fill="#ffffff" stroke="none" d="M 775.3207272727273 217.68 C 775.3207272727273 212.886167936 779.2065695976727 209 784 209 C 788.7934304023273 209 792.6792727272727 212.886167936 792.6792727272727 217.68 C 792.6792727272727 222.47383206400002 788.7934304023273 226.36 784 226.36 C 779.2065695976727 226.36 775.3207272727273 222.47383206400002 775.3207272727273 217.68 Z"></path></g><g transform="translate(-62,-14) scale(1,1)"><path fill="none" stroke="#000000" d="M 775.3207272727273 217.68 C 775.3207272727273 212.886167936 779.2065695976727 209 784 209 C 788.7934304023273 209 792.6792727272727 212.886167936 792.6792727272727 217.68 C 792.6792727272727 222.47383206400002 788.7934304023273 226.36 784 226.36 C 779.2065695976727 226.36 775.3207272727273 222.47383206400002 775.3207272727273 217.68 Z" stroke-miterlimit="10"></path></g><g transform="translate(-62,-14) scale(1,1)"><path fill="none" stroke="#000000" d="M 784 226.36 L 784 243.64" stroke-miterlimit="10"></path></g><g transform="translate(-62,-14) scale(1,1)"><path fill="none" stroke="#000000" d="M 774.8101818181818 232.84 L 793.1898181818182 232.84" stroke-miterlimit="10"></path></g><g transform="translate(-62,-14) scale(1,1)"><path fill="none" stroke="#000000" d="M 784 243.64 L 771.2363636363636 261" stroke-miterlimit="10"></path></g><g transform="translate(-62,-14) scale(1,1)"><path fill="none" stroke="#000000" d="M 784 243.64 L 796.7636363636364 261" stroke-miterlimit="10"></path></g><g transform="translate(-62,-14) scale(1,1)"><g><path fill="none" stroke="none"></path><text fill="#000000" stroke="none" font-family="Arial" font-size="13px" font-style="normal" font-weight="bold" text-decoration="none" x="756.5" y="281.5">Assistant</text></g></g><g transform="translate(-62,-14) scale(1,1)"><path fill="#C0C0C0" stroke="none" d="M 287 112 C 287 102.6111584 309.38576 95 337 95 C 364.61424 95 387 102.6111584 387 112 C 387 121.3888416 364.61424 129 337 129 C 309.38576 129 287 121.3888416 287 112 Z" opacity="0.2"></path></g><g transform="translate(-62,-14) scale(1,1)"><path fill="#ffffff" stroke="none" d="M 280 105 C 280 95.6111584 302.38576 88 330 88 C 357.61424 88 380 95.6111584 380 105 C 380 114.3888416 357.61424 122 330 122 C 302.38576 122 280 114.3888416 280 105 Z"></path></g><g transform="translate(-62,-14) scale(1,1)"><path fill="none" stroke="#000000" d="M 280 105 C 280 95.6111584 302.38576 88 330 88 C 357.61424 88 380 95.6111584 380 105 C 380 114.3888416 357.61424 122 330 122 C 302.38576 122 280 114.3888416 280 105 Z" stroke-miterlimit="10"></path></g><g transform="translate(-62,-14) scale(1,1)"><g><path fill="none" stroke="none"></path><text fill="#000000" stroke="none" font-family="Arial" font-size="13px" font-style="normal" font-weight="bold" text-decoration="none" x="301.5" y="112">Feedback</text></g></g><g transform="translate(-62,-14) scale(1,1)"><path fill="none" stroke="#000000" d="M 127 131 L 279 112" stroke-miterlimit="10"></path></g><g transform="translate(-62,-14) scale(1,1)"><path fill="none" stroke="#000000" d="M 269.43792898816133 117.43753601960987 L 279 112 L 268.39367615292934 109.0835133377538" stroke-miterlimit="10"></path></g><g transform="translate(-62,-14) scale(1,1)"><g><path fill="none" stroke="none"></path><text fill="#000000" stroke="none" font-family="Arial" font-size="13px" font-style="normal" font-weight="normal" text-decoration="none" x="184.5" y="112.5">+Fills</text></g></g><g transform="translate(-62,-14) scale(1,1)"><path fill="#ffffff" stroke="none" d="M 154.82072727272728 281.68 C 154.82072727272728 276.886167936 158.70656959767274 273 163.5 273 C 168.29343040232726 273 172.17927272727272 276.886167936 172.17927272727272 281.68 C 172.17927272727272 286.473832064 168.29343040232726 290.36 163.5 290.36 C 158.70656959767274 290.36 154.82072727272728 286.473832064 154.82072727272728 281.68 Z"></path></g><g transform="translate(-62,-14) scale(1,1)"><path fill="none" stroke="#000000" d="M 154.82072727272728 281.68 C 154.82072727272728 276.886167936 158.70656959767274 273 163.5 273 C 168.29343040232726 273 172.17927272727272 276.886167936 172.17927272727272 281.68 C 172.17927272727272 286.473832064 168.29343040232726 290.36 163.5 290.36 C 158.70656959767274 290.36 154.82072727272728 286.473832064 154.82072727272728 281.68 Z" stroke-miterlimit="10"></path></g><g transform="translate(-62,-14) scale(1,1)"><path fill="none" stroke="#000000" d="M 163.5 290.36 L 163.5 307.64" stroke-miterlimit="10"></path></g><g transform="translate(-62,-14) scale(1,1)"><path fill="none" stroke="#000000" d="M 154.31018181818183 296.84 L 172.68981818181817 296.84" stroke-miterlimit="10"></path></g><g transform="translate(-62,-14) scale(1,1)"><path fill="none" stroke="#000000" d="M 163.5 307.64 L 150.73636363636365 325" stroke-miterlimit="10"></path></g><g transform="translate(-62,-14) scale(1,1)"><path fill="none" stroke="#000000" d="M 163.5 307.64 L 176.26363636363635 325" stroke-miterlimit="10"></path></g><g transform="translate(-62,-14) scale(1,1)"><g><path fill="none" stroke="none"></path><text fill="#000000" stroke="none" font-family="Arial" font-size="13px" font-style="normal" font-weight="bold" text-decoration="none" x="127.5" y="345.5">Receptionist</text></g></g><g transform="translate(-62,-14) scale(1,1)"><path fill="#C0C0C0" stroke="none" d="M 311 264 C 311 254.6111584 361.5918176 247 424 247 C 486.4081824 247 537 254.6111584 537 264 C 537 273.3888416 486.4081824 281 424 281 C 361.5918176 281 311 273.3888416 311 264 Z" opacity="0.2"></path></g><g transform="translate(-62,-14) scale(1,1)"><path fill="#ffffff" stroke="none" d="M 304 257 C 304 247.6111584 354.5918176 240 417 240 C 479.4081824 240 530 247.6111584 530 257 C 530 266.3888416 479.4081824 274 417 274 C 354.5918176 274 304 266.3888416 304 257 Z"></path></g><g transform="translate(-62,-14) scale(1,1)"><path fill="none" stroke="#000000" d="M 304 257 C 304 247.6111584 354.5918176 240 417 240 C 479.4081824 240 530 247.6111584 530 257 C 530 266.3888416 479.4081824 274 417 274 C 354.5918176 274 304 266.3888416 304 257 Z" stroke-miterlimit="10"></path></g><g transform="translate(-62,-14) scale(1,1)"><g><path fill="none" stroke="none"></path><text fill="#000000" stroke="none" font-family="Arial" font-size="13px" font-style="normal" font-weight="bold" text-decoration="none" x="351" y="264">Fill registration number</text></g></g><g transform="translate(-62,-14) scale(1,1)"><path fill="#C0C0C0" stroke="none" d="M 279 384 C 279 374.6111584 317.27964959999997 367 364.5 367 C 411.72035040000003 367 450 374.6111584 450 384 C 450 393.3888416 411.72035040000003 401 364.5 401 C 317.27964959999997 401 279 393.3888416 279 384 Z" opacity="0.2"></path></g><g transform="translate(-62,-14) scale(1,1)"><path fill="#ffffff" stroke="none" d="M 272 377 C 272 367.6111584 310.27964959999997 360 357.5 360 C 404.72035040000003 360 443 367.6111584 443 377 C 443 386.3888416 404.72035040000003 394 357.5 394 C 310.27964959999997 394 272 386.3888416 272 377 Z"></path></g><g transform="translate(-62,-14) scale(1,1)"><path fill="none" stroke="#000000" d="M 272 377 C 272 367.6111584 310.27964959999997 360 357.5 360 C 404.72035040000003 360 443 367.6111584 443 377 C 443 386.3888416 404.72035040000003 394 357.5 394 C 310.27964959999997 394 272 386.3888416 272 377 Z" stroke-miterlimit="10"></path></g><g transform="translate(-62,-14) scale(1,1)"><g><path fill="none" stroke="none"></path><text fill="#000000" stroke="none" font-family="Arial" font-size="13px" font-style="normal" font-weight="bold" text-decoration="none" x="306.5" y="384">Register a patient</text></g></g><g transform="translate(-62,-14) scale(1,1)"><path fill="none" stroke="#000000" d="M 208 301 L 332 275" stroke-miterlimit="10"></path></g><g transform="translate(-62,-14) scale(1,1)"><path fill="none" stroke="#000000" d="M 322.9174733931613 281.2054581165347 L 332 275 L 321.18976233142627 272.9656053605679" stroke-miterlimit="10"></path></g><g transform="translate(-62,-14) scale(1,1)"><g><path fill="none" stroke="none"></path><text fill="#000000" stroke="none" font-family="Arial" font-size="13px" font-style="normal" font-weight="normal" text-decoration="none" x="244.5" y="279.5">+Inputs</text></g></g><g transform="translate(-62,-14) scale(1,1)"><path fill="none" stroke="#000000" d="M 208 326 L 304 359" stroke-miterlimit="10"></path></g><g transform="translate(-62,-14) scale(1,1)"><path fill="none" stroke="#000000" d="M 293.02086551638354 359.6772045412307 L 304 359 L 295.75772363172115 351.71543547843027" stroke-miterlimit="10"></path></g><g transform="translate(-62,-14) scale(1,1)"><g><path fill="none" stroke="none"></path><text fill="#000000" stroke="none" font-family="Arial" font-size="13px" font-style="normal" font-weight="normal" text-decoration="none" x="239.5" y="333.5">+Inputs</text></g></g><g transform="translate(-62,-14) scale(1,1)"><path fill="#C0C0C0" stroke="none" d="M 487 208 C 487 198.6111584 518.340064 191 557 191 C 595.659936 191 627 198.6111584 627 208 C 627 217.3888416 595.659936 225 557 225 C 518.340064 225 487 217.3888416 487 208 Z" opacity="0.2"></path></g><g transform="translate(-62,-14) scale(1,1)"><path fill="#ffffff" stroke="none" d="M 480 201 C 480 191.6111584 511.340064 184 550 184 C 588.659936 184 620 191.6111584 620 201 C 620 210.3888416 588.659936 218 550 218 C 511.340064 218 480 210.3888416 480 201 Z"></path></g><g transform="translate(-62,-14) scale(1,1)"><path fill="none" stroke="#000000" d="M 480 201 C 480 191.6111584 511.340064 184 550 184 C 588.659936 184 620 191.6111584 620 201 C 620 210.3888416 588.659936 218 550 218 C 511.340064 218 480 210.3888416 480 201 Z" stroke-miterlimit="10"></path></g><g transform="translate(-62,-14) scale(1,1)"><g><path fill="none" stroke="none"></path><text fill="#000000" stroke="none" font-family="Arial" font-size="13px" font-style="normal" font-weight="bold" text-decoration="none" x="508" y="208">Marks the visit</text></g></g><g transform="translate(-62,-14) scale(1,1)"><path fill="none" stroke="#000000" d="M 751 241 L 621 215" stroke-miterlimit="10"></path></g><g transform="translate(-62,-14) scale(1,1)"><path fill="none" stroke="#000000" d="M 631.7908769318217 212.86529275021616 L 621 215 L 630.1397682256109 221.12083628127033" stroke-miterlimit="10"></path></g><g transform="translate(-62,-14) scale(1,1)"><path fill="#C0C0C0" stroke="none" d="M 287 506.5 C 287 495.7304464 322.1456432 487 365.5 487 C 408.8543568 487 444 495.7304464 444 506.5 C 444 517.2695536 408.8543568 526 365.5 526 C 322.1456432 526 287 517.2695536 287 506.5 Z" opacity="0.2"></path></g><g transform="translate(-62,-14) scale(1,1)"><path fill="#ffffff" stroke="none" d="M 280 499.5 C 280 488.7304464 315.1456432 480 358.5 480 C 401.8543568 480 437 488.7304464 437 499.5 C 437 510.2695536 401.8543568 519 358.5 519 C 315.1456432 519 280 510.2695536 280 499.5 Z"></path></g><g transform="translate(-62,-14) scale(1,1)"><path fill="none" stroke="#000000" d="M 280 499.5 C 280 488.7304464 315.1456432 480 358.5 480 C 401.8543568 480 437 488.7304464 437 499.5 C 437 510.2695536 401.8543568 519 358.5 519 C 315.1456432 519 280 510.2695536 280 499.5 Z" stroke-miterlimit="10"></path></g><g transform="translate(-62,-14) scale(1,1)"><g><path fill="none" stroke="none"></path><text fill="#000000" stroke="none" font-family="Arial" font-size="13px" font-style="normal" font-weight="bold" text-decoration="none" x="325.5" y="506.5">Print Ticket</text></g></g><g transform="translate(-62,-14) scale(1,1)"><path fill="none" stroke="#000000" d="M 337 479 L 206 352" stroke-miterlimit="10"></path></g><g transform="translate(-62,-14) scale(1,1)"><path fill="none" stroke="#000000" d="M 216.22670967468162 356.05147000849985 L 206 352 L 210.3665538434093 362.09619767697757" stroke-miterlimit="10"></path></g><g transform="translate(-62,-14) scale(1,1)"><g><path fill="none" stroke="none"></path><text fill="#000000" stroke="none" font-family="Arial" font-size="13px" font-style="normal" font-weight="normal" text-decoration="none" x="236.5" y="431.5">+Output</text></g></g><g transform="translate(-62,-14) scale(1,1)"><path fill="#C0C0C0" stroke="none" d="M 415 112 C 415 102.6111584 460.2192352 95 516 95 C 571.7807648 95 617 102.6111584 617 112 C 617 121.3888416 571.7807648 129 516 129 C 460.2192352 129 415 121.3888416 415 112 Z" opacity="0.2"></path></g><g transform="translate(-62,-14) scale(1,1)"><path fill="#ffffff" stroke="none" d="M 408 105 C 408 95.6111584 453.2192352 88 509 88 C 564.7807648 88 610 95.6111584 610 105 C 610 114.3888416 564.7807648 122 509 122 C 453.2192352 122 408 114.3888416 408 105 Z"></path></g><g transform="translate(-62,-14) scale(1,1)"><path fill="none" stroke="#000000" d="M 408 105 C 408 95.6111584 453.2192352 88 509 88 C 564.7807648 88 610 95.6111584 610 105 C 610 114.3888416 564.7807648 122 509 122 C 453.2192352 122 408 114.3888416 408 105 Z" stroke-miterlimit="10"></path></g><g transform="translate(-62,-14) scale(1,1)"><g><path fill="none" stroke="none"></path><text fill="#000000" stroke="none" font-family="Arial" font-size="13px" font-style="normal" font-weight="bold" text-decoration="none" x="446.5" y="112">Prescribes Medicines</text></g></g><g transform="translate(-62,-14) scale(1,1)"><path fill="none" stroke="#000000" d="M 679 145 L 586 123" stroke-miterlimit="10"></path></g><g transform="translate(-62,-14) scale(1,1)"><path fill="none" stroke="#000000" d="M 596.858780516381 121.24304647270789 L 586 123 L 594.9206710919273 129.4359635851715" stroke-miterlimit="10"></path></g><g transform="translate(-62,-14) scale(1,1)"><path fill="#C0C0C0" stroke="none" d="M 487 152 C 487 142.6111584 524.6080768 135 571 135 C 617.3919232 135 655 142.6111584 655 152 C 655 161.3888416 617.3919232 169 571 169 C 524.6080768 169 487 161.3888416 487 152 Z" opacity="0.2"></path></g><g transform="translate(-62,-14) scale(1,1)"><path fill="#ffffff" stroke="none" d="M 480 145 C 480 135.6111584 517.6080768 128 564 128 C 610.3919232 128 648 135.6111584 648 145 C 648 154.3888416 610.3919232 162 564 162 C 517.6080768 162 480 154.3888416 480 145 Z"></path></g><g transform="translate(-62,-14) scale(1,1)"><path fill="none" stroke="#000000" d="M 480 145 C 480 135.6111584 517.6080768 128 564 128 C 610.3919232 128 648 135.6111584 648 145 C 648 154.3888416 610.3919232 162 564 162 C 517.6080768 162 480 154.3888416 480 145 Z" stroke-miterlimit="10"></path></g><g transform="translate(-62,-14) scale(1,1)"><g><path fill="none" stroke="none"></path><text fill="#000000" stroke="none" font-family="Arial" font-size="13px" font-style="normal" font-weight="bold" text-decoration="none" x="514" y="152">Print Prescription</text></g></g><g transform="translate(-62,-14) scale(1,1)"><path fill="none" stroke="#000000" d="M 649 149 L 679 150" stroke-miterlimit="10"></path></g><g transform="translate(-62,-14) scale(1,1)"><path fill="none" stroke="#000000" d="M 668.7027270028594 153.86861329449724 L 679 150 L 668.9832057416654 145.45425113032024" stroke-miterlimit="10"></path></g><g transform="translate(-62,-14) scale(1,1)"><path fill="#ffffff" stroke="none" d="M 124.82072727272728 537.6800000000001 C 124.82072727272728 532.8861679360001 128.70656959767274 529 133.5 529 C 138.29343040232726 529 142.17927272727272 532.8861679360001 142.17927272727272 537.6800000000001 C 142.17927272727272 542.473832064 138.29343040232726 546.36 133.5 546.36 C 128.70656959767274 546.36 124.82072727272728 542.473832064 124.82072727272728 537.6800000000001 Z"></path></g><g transform="translate(-62,-14) scale(1,1)"><path fill="none" stroke="#000000" d="M 124.82072727272728 537.6800000000001 C 124.82072727272728 532.8861679360001 128.70656959767274 529 133.5 529 C 138.29343040232726 529 142.17927272727272 532.8861679360001 142.17927272727272 537.6800000000001 C 142.17927272727272 542.473832064 138.29343040232726 546.36 133.5 546.36 C 128.70656959767274 546.36 124.82072727272728 542.473832064 124.82072727272728 537.6800000000001 Z" stroke-miterlimit="10"></path></g><g transform="translate(-62,-14) scale(1,1)"><path fill="none" stroke="#000000" d="M 133.5 546.36 L 133.5 563.64" stroke-miterlimit="10"></path></g><g transform="translate(-62,-14) scale(1,1)"><path fill="none" stroke="#000000" d="M 124.31018181818183 552.84 L 142.68981818181817 552.84" stroke-miterlimit="10"></path></g><g transform="translate(-62,-14) scale(1,1)"><path fill="none" stroke="#000000" d="M 133.5 563.64 L 120.73636363636365 581" stroke-miterlimit="10"></path></g><g transform="translate(-62,-14) scale(1,1)"><path fill="none" stroke="#000000" d="M 133.5 563.64 L 146.26363636363635 581" stroke-miterlimit="10"></path></g><g transform="translate(-62,-14) scale(1,1)"><g><path fill="none" stroke="none"></path><text fill="#000000" stroke="none" font-family="Arial" font-size="13px" font-style="normal" font-weight="bold" text-decoration="none" x="81" y="601.5">DataBase Handler</text></g></g><g transform="translate(-62,-14) scale(1,1)"><path fill="#C0C0C0" stroke="none" d="M 359 576 C 359 566.6111584 391.90706720000003 559 432.5 559 C 473.09293279999997 559 506 566.6111584 506 576 C 506 585.3888416 473.09293279999997 593 432.5 593 C 391.90706720000003 593 359 585.3888416 359 576 Z" opacity="0.2"></path></g><g transform="translate(-62,-14) scale(1,1)"><path fill="#ffffff" stroke="none" d="M 352 569 C 352 559.6111584 384.90706720000003 552 425.5 552 C 466.09293279999997 552 499 559.6111584 499 569 C 499 578.3888416 466.09293279999997 586 425.5 586 C 384.90706720000003 586 352 578.3888416 352 569 Z"></path></g><g transform="translate(-62,-14) scale(1,1)"><path fill="none" stroke="#000000" d="M 352 569 C 352 559.6111584 384.90706720000003 552 425.5 552 C 466.09293279999997 552 499 559.6111584 499 569 C 499 578.3888416 466.09293279999997 586 425.5 586 C 384.90706720000003 586 352 578.3888416 352 569 Z" stroke-miterlimit="10"></path></g><g transform="translate(-62,-14) scale(1,1)"><g><path fill="none" stroke="none"></path><text fill="#000000" stroke="none" font-family="Arial" font-size="13px" font-style="normal" font-weight="bold" text-decoration="none" x="380.5" y="576">Database Entry</text></g></g><g transform="translate(-62,-14) scale(1,1)"><path fill="none" stroke="#000000" d="M 351 568 L 196 567" stroke-miterlimit="10"></path></g><g transform="translate(-62,-14) scale(1,1)"><path fill="none" stroke="#000000" d="M 206.18962097603037 562.8561341280343 L 196 567 L 206.1353057482662 571.2749944314774" stroke-miterlimit="10"></path></g><g transform="translate(-62,-14) scale(1,1)"><g><path fill="none" stroke="none"></path><text fill="#000000" stroke="none" font-family="Arial" font-size="13px" font-style="normal" font-weight="normal" text-decoration="none" x="214.5" y="588.5">+Information sent to</text></g></g><g transform="translate(-62,-14) scale(1,1)"><path fill="#C0C0C0" stroke="none" d="M 423 320 C 423 310.6111584 466.652232 303 520.5 303 C 574.347768 303 618 310.6111584 618 320 C 618 329.3888416 574.347768 337 520.5 337 C 466.652232 337 423 329.3888416 423 320 Z" opacity="0.2"></path></g><g transform="translate(-62,-14) scale(1,1)"><path fill="#ffffff" stroke="none" d="M 416 313 C 416 303.6111584 459.652232 296 513.5 296 C 567.347768 296 611 303.6111584 611 313 C 611 322.3888416 567.347768 330 513.5 330 C 459.652232 330 416 322.3888416 416 313 Z"></path></g><g transform="translate(-62,-14) scale(1,1)"><path fill="none" stroke="#000000" d="M 416 313 C 416 303.6111584 459.652232 296 513.5 296 C 567.347768 296 611 303.6111584 611 313 C 611 322.3888416 567.347768 330 513.5 330 C 459.652232 330 416 322.3888416 416 313 Z" stroke-miterlimit="10"></path></g><g transform="translate(-62,-14) scale(1,1)"><g><path fill="none" stroke="none"></path><text fill="#000000" stroke="none" font-family="Arial" font-size="13px" font-style="normal" font-weight="bold" text-decoration="none" x="454.5" y="320">Check for medicines</text></g></g><g transform="translate(-62,-14) scale(1,1)"><path fill="#C0C0C0" stroke="none" d="M 463 440 C 463 430.6111584 506.4283744 423 560 423 C 613.5716256000001 423 657 430.6111584 657 440 C 657 449.3888416 613.5716256000001 457 560 457 C 506.4283744 457 463 449.3888416 463 440 Z" opacity="0.2"></path></g><g transform="translate(-62,-14) scale(1,1)"><path fill="#ffffff" stroke="none" d="M 456 433 C 456 423.6111584 499.4283744 416 553 416 C 606.5716256000001 416 650 423.6111584 650 433 C 650 442.3888416 606.5716256000001 450 553 450 C 499.4283744 450 456 442.3888416 456 433 Z"></path></g><g transform="translate(-62,-14) scale(1,1)"><path fill="none" stroke="#000000" d="M 456 433 C 456 423.6111584 499.4283744 416 553 416 C 606.5716256000001 416 650 423.6111584 650 433 C 650 442.3888416 606.5716256000001 450 553 450 C 499.4283744 450 456 442.3888416 456 433 Z" stroke-miterlimit="10"></path></g><g transform="translate(-62,-14) scale(1,1)"><g><path fill="none" stroke="none"></path><text fill="#000000" stroke="none" font-family="Arial" font-size="13px" font-style="normal" font-weight="bold" text-decoration="none" x="495.5" y="440">Confirm Transaction</text></g></g><g transform="translate(-62,-14) scale(1,1)"><path fill="none" stroke="#000000" d="M 547 415 L 519 331" stroke-miterlimit="10" stroke-dasharray="3"></path></g><g transform="translate(-62,-14) scale(1,1)"><path fill="none" stroke="#000000" d="M 526.2072191549614 339.3099935049528 L 519 331 L 518.2202207790025 341.97232629693906" stroke-miterlimit="10"></path></g><g transform="translate(-62,-14) scale(1,1)"><g><path fill="none" stroke="none"></path><text fill="#000000" stroke="none" font-family="Arial" font-size="13px" font-style="normal" font-weight="normal" text-decoration="none" x="476.5" y="388.5">«include»</text></g></g><g transform="translate(-62,-14) scale(1,1)"><path fill="none" stroke="#000000" d="M 679 393 L 610 415" stroke-miterlimit="10"></path></g><g transform="translate(-62,-14) scale(1,1)"><path fill="none" stroke="#000000" d="M 618.4036901273719 407.9022544253043 L 610 415 L 620.9611703030592 415.923442249051" stroke-miterlimit="10"></path></g><g transform="translate(-62,-14) scale(1,1)"><path fill="#C0C0C0" stroke="none" d="M 519 496 C 519 486.6111584 547.8776304 479 583.5 479 C 619.1223696 479 648 486.6111584 648 496 C 648 505.3888416 619.1223696 513 583.5 513 C 547.8776304 513 519 505.3888416 519 496 Z" opacity="0.2"></path></g><g transform="translate(-62,-14) scale(1,1)"><path fill="#ffffff" stroke="none" d="M 512 489 C 512 479.6111584 540.8776304 472 576.5 472 C 612.1223696 472 641 479.6111584 641 489 C 641 498.3888416 612.1223696 506 576.5 506 C 540.8776304 506 512 498.3888416 512 489 Z"></path></g><g transform="translate(-62,-14) scale(1,1)"><path fill="none" stroke="#000000" d="M 512 489 C 512 479.6111584 540.8776304 472 576.5 472 C 612.1223696 472 641 479.6111584 641 489 C 641 498.3888416 612.1223696 506 576.5 506 C 540.8776304 506 512 498.3888416 512 489 Z" stroke-miterlimit="10"></path></g><g transform="translate(-62,-14) scale(1,1)"><g><path fill="none" stroke="none"></path><text fill="#000000" stroke="none" font-family="Arial" font-size="13px" font-style="normal" font-weight="bold" text-decoration="none" x="539" y="496">Print Receipt</text></g></g><g transform="translate(-62,-14) scale(1,1)"><path fill="none" stroke="#000000" d="M 599 471 L 679 408" stroke-miterlimit="10"></path></g><g transform="translate(-62,-14) scale(1,1)"><path fill="none" stroke="#000000" d="M 673.6202142155056 417.59468107406144 L 679 408 L 668.411452939662 410.9803810412441" stroke-miterlimit="10"></path></g></g></svg>