<svg version="1.1" xmlns="http://www.w3.org/2000/svg" xmlns:xlink="http://www.w3.org/1999/xlink" width="1690" height="1232"><defs></defs><g><g transform="translate(-1446,-710) scale(1,1)"><rect fill="#C0C0C0" stroke="none" x="1463" y="871" width="306" height="235" opacity="0.2"></rect></g><g transform="translate(-1446,-710) scale(1,1)"><rect fill="#ffffff" stroke="none" x="1456" y="864" width="306" height="235"></rect></g><g transform="translate(-1446,-710) scale(1,1)"><path fill="none" stroke="#000000" d="M 1456 864 L 1762 864 L 1762 1099 L 1456 1099 L 1456 864 Z Z" stroke-miterlimit="10"></path></g><g transform="translate(-1446,-710) scale(1,1)"><path fill="none" stroke="#000000" d="M 1456 889 L 1762 889" stroke-miterlimit="10"></path></g><g transform="translate(-1446,-710) scale(1,1)"><path fill="none" stroke="#000000" d="M 1456 1047 L 1762 1047" stroke-miterlimit="10"></path></g><g transform="translate(-1446,-710) scale(1,1)"><g><path fill="none" stroke="none"></path><text fill="#000000" stroke="none" font-family="Arial" font-size="13px" font-style="normal" font-weight="bold" text-decoration="none" x="1594" y="883.5">Form</text></g></g><g transform="translate(-1446,-710) scale(1,1)"><g><path fill="none" stroke="none"></path><text fill="#000000" stroke="none" font-family="Arial" font-size="13px" font-style="normal" font-weight="normal" text-decoration="none" x="1461" y="906.5">+Name: String</text></g></g><g transform="translate(-1446,-710) scale(1,1)"><g><path fill="none" stroke="none"></path><text fill="#000000" stroke="none" font-family="Arial" font-size="13px" font-style="normal" font-weight="normal" text-decoration="none" x="1461" y="921.5">+Age: Int</text></g></g><g transform="translate(-1446,-710) scale(1,1)"><g><path fill="none" stroke="none"></path><text fill="#000000" stroke="none" font-family="Arial" font-size="13px" font-style="normal" font-weight="normal" text-decoration="none" x="1461" y="936.5">+Blood_group: String</text></g></g><g transform="translate(-1446,-710) scale(1,1)"><g><path fill="none" stroke="none"></path><text fill="#000000" stroke="none" font-family="Arial" font-size="13px" font-style="normal" font-weight="normal" text-decoration="none" x="1461" y="951.5">-Address: String</text></g></g><g transform="translate(-1446,-710) scale(1,1)"><g><path fill="none" stroke="none"></path><text fill="#000000" stroke="none" font-family="Arial" font-size="13px" font-style="normal" font-weight="normal" text-decoration="none" x="1461" y="966.5">-Father_name: String</text></g></g><g transform="translate(-1446,-710) scale(1,1)"><g><path fill="none" stroke="none"></path><text fill="#000000" stroke="none" font-family="Arial" font-size="13px" font-style="normal" font-weight="normal" text-decoration="none" x="1461" y="981.5">-Adhaar_number: Int</text></g></g><g transform="translate(-1446,-710) scale(1,1)"><g><path fill="none" stroke="none"></path><text fill="#000000" stroke="none" font-family="Arial" font-size="13px" font-style="normal" font-weight="normal" text-decoration="none" x="1461" y="996.5">+Date_Of_Birth: Int</text></g></g><g transform="translate(-1446,-710) scale(1,1)"><g><path fill="none" stroke="none"></path><text fill="#000000" stroke="none" font-family="Arial" font-size="13px" font-style="normal" font-weight="normal" text-decoration="none" x="1461" y="1011.5">-Chronic_Diseases: String</text></g></g><g transform="translate(-1446,-710) scale(1,1)"><g><path fill="none" stroke="none"></path><text fill="#000000" stroke="none" font-family="Arial" font-size="13px" font-style="normal" font-weight="normal" text-decoration="none" x="1461" y="1026.5">-Email: String</text></g></g><g transform="translate(-1446,-710) scale(1,1)"><g><path fill="none" stroke="none"></path><text fill="#000000" stroke="none" font-family="Arial" font-size="13px" font-style="normal" font-weight="normal" text-decoration="none" x="1461" y="1041.5">-Mobile: Int</text></g></g><g transform="translate(-1446,-710) scale(1,1)"><g><path fill="none" stroke="none"></path><text fill="#000000" stroke="none" font-family="Arial" font-size="13px" font-style="normal" font-weight="normal" text-decoration="none" x="1461" y="1064.5">+updateDetails(String key: in, String value: in): bool</text></g></g><g transform="translate(-1446,-710) scale(1,1)"><g><path fill="none" stroke="none"></path><text fill="#000000" stroke="none" font-family="Arial" font-size="13px" font-style="normal" font-weight="normal" text-decoration="none" x="1461" y="1079.5">+getDetails(): String</text></g></g><g transform="translate(-1446,-710) scale(1,1)"><rect fill="#C0C0C0" stroke="none" x="1903" y="871" width="421" height="325" opacity="0.2"></rect></g><g transform="translate(-1446,-710) scale(1,1)"><rect fill="#ffffff" stroke="none" x="1896" y="864" width="421" height="325"></rect></g><g transform="translate(-1446,-710) scale(1,1)"><path fill="none" stroke="#000000" d="M 1896 864 L 2317 864 L 2317 1189 L 1896 1189 L 1896 864 Z Z" stroke-miterlimit="10"></path></g><g transform="translate(-1446,-710) scale(1,1)"><path fill="none" stroke="#000000" d="M 1896 889 L 2317 889" stroke-miterlimit="10"></path></g><g transform="translate(-1446,-710) scale(1,1)"><path fill="none" stroke="#000000" d="M 1896 927 L 2317 927" stroke-miterlimit="10"></path></g><g transform="translate(-1446,-710) scale(1,1)"><g><path fill="none" stroke="none"></path><text fill="#000000" stroke="none" font-family="Arial" font-size="13px" font-style="normal" font-weight="bold" text-decoration="none" x="2077.5" y="883.5">Reception</text></g></g><g transform="translate(-1446,-710) scale(1,1)"><g><path fill="none" stroke="none"></path><text fill="#000000" stroke="none" font-family="Arial" font-size="13px" font-style="normal" font-weight="normal" text-decoration="none" x="1901" y="906.5">-NumVisitedPatientsDay: Int</text></g></g><g transform="translate(-1446,-710) scale(1,1)"><g><path fill="none" stroke="none"></path><text fill="#000000" stroke="none" font-family="Arial" font-size="13px" font-style="normal" font-weight="normal" text-decoration="none" x="1901" y="921.5">-f: Form</text></g></g><g transform="translate(-1446,-710) scale(1,1)"><g><path fill="none" stroke="none"></path><text fill="#000000" stroke="none" font-family="Arial" font-size="13px" font-style="normal" font-weight="normal" text-decoration="none" x="1901" y="944.5">+getRegisterationNum(String name: in, String Adhaar_number: in): bool</text></g></g><g transform="translate(-1446,-710) scale(1,1)"><g><path fill="none" stroke="none"></path><text fill="#000000" stroke="none" font-family="Arial" font-size="13px" font-style="normal" font-weight="normal" text-decoration="none" x="1901" y="959.5">+getName(): bool</text></g></g><g transform="translate(-1446,-710) scale(1,1)"><g><path fill="none" stroke="none"></path><text fill="#000000" stroke="none" font-family="Arial" font-size="13px" font-style="normal" font-weight="normal" text-decoration="none" x="1901" y="974.5">+getAge(): bool</text></g></g><g transform="translate(-1446,-710) scale(1,1)"><g><path fill="none" stroke="none"></path><text fill="#000000" stroke="none" font-family="Arial" font-size="13px" font-style="normal" font-weight="normal" text-decoration="none" x="1901" y="989.5">+getBlood_Group(): bool</text></g></g><g transform="translate(-1446,-710) scale(1,1)"><g><path fill="none" stroke="none"></path><text fill="#000000" stroke="none" font-family="Arial" font-size="13px" font-style="normal" font-weight="normal" text-decoration="none" x="1901" y="1004.5">+getSddress(): bool</text></g></g><g transform="translate(-1446,-710) scale(1,1)"><g><path fill="none" stroke="none"></path><text fill="#000000" stroke="none" font-family="Arial" font-size="13px" font-style="normal" font-weight="normal" text-decoration="none" x="1901" y="1019.5">+getFather_name(): bool</text></g></g><g transform="translate(-1446,-710) scale(1,1)"><g><path fill="none" stroke="none"></path><text fill="#000000" stroke="none" font-family="Arial" font-size="13px" font-style="normal" font-weight="normal" text-decoration="none" x="1901" y="1034.5">+Adhaar_number(): Int</text></g></g><g transform="translate(-1446,-710) scale(1,1)"><g><path fill="none" stroke="none"></path><text fill="#000000" stroke="none" font-family="Arial" font-size="13px" font-style="normal" font-weight="normal" text-decoration="none" x="1901" y="1049.5">+getDate_Of_Birth(): bool</text></g></g><g transform="translate(-1446,-710) scale(1,1)"><g><path fill="none" stroke="none"></path><text fill="#000000" stroke="none" font-family="Arial" font-size="13px" font-style="normal" font-weight="normal" text-decoration="none" x="1901" y="1064.5">+getChronicDisease(): bool</text></g></g><g transform="translate(-1446,-710) scale(1,1)"><g><path fill="none" stroke="none"></path><text fill="#000000" stroke="none" font-family="Arial" font-size="13px" font-style="normal" font-weight="normal" text-decoration="none" x="1901" y="1079.5">+getEmail(): bool</text></g></g><g transform="translate(-1446,-710) scale(1,1)"><g><path fill="none" stroke="none"></path><text fill="#000000" stroke="none" font-family="Arial" font-size="13px" font-style="normal" font-weight="normal" text-decoration="none" x="1901" y="1094.5">+getMobile(): Int</text></g></g><g transform="translate(-1446,-710) scale(1,1)"><g><path fill="none" stroke="none"></path><text fill="#000000" stroke="none" font-family="Arial" font-size="13px" font-style="normal" font-weight="normal" text-decoration="none" x="1901" y="1109.5">+getPersonDetails(): Form</text></g></g><g transform="translate(-1446,-710) scale(1,1)"><g><path fill="none" stroke="none"></path><text fill="#000000" stroke="none" font-family="Arial" font-size="13px" font-style="normal" font-weight="normal" text-decoration="none" x="1901" y="1124.5">+getAndPrintTicket(String regNum: in, String doctor: in): Ticket</text></g></g><g transform="translate(-1446,-710) scale(1,1)"><g><path fill="none" stroke="none"></path><text fill="#000000" stroke="none" font-family="Arial" font-size="13px" font-style="normal" font-weight="normal" text-decoration="none" x="1901" y="1139.5">+requestHelp(String help): bool</text></g></g><g transform="translate(-1446,-710) scale(1,1)"><g><path fill="none" stroke="none"></path><text fill="#000000" stroke="none" font-family="Arial" font-size="13px" font-style="normal" font-weight="normal" text-decoration="none" x="1901" y="1154.5">+emergency(): bool</text></g></g><g transform="translate(-1446,-710) scale(1,1)"><g><path fill="none" stroke="none"></path><text fill="#000000" stroke="none" font-family="Arial" font-size="13px" font-style="normal" font-weight="normal" text-decoration="none" x="1901" y="1169.5">+incrementVisits(): void</text></g></g><g transform="translate(-1446,-710) scale(1,1)"><g><path fill="none" stroke="none"></path><text fill="#000000" stroke="none" font-family="Arial" font-size="13px" font-style="normal" font-weight="normal" text-decoration="none" x="1901" y="1184.5">+clearDetails(): bool</text></g></g><g transform="translate(-1446,-710) scale(1,1)"><rect fill="#C0C0C0" stroke="none" x="2167" y="1519" width="391" height="168" opacity="0.2"></rect></g><g transform="translate(-1446,-710) scale(1,1)"><rect fill="#ffffff" stroke="none" x="2160" y="1512" width="391" height="168"></rect></g><g transform="translate(-1446,-710) scale(1,1)"><path fill="none" stroke="#000000" d="M 2160 1512 L 2551 1512 L 2551 1680 L 2160 1680 L 2160 1512 Z Z" stroke-miterlimit="10"></path></g><g transform="translate(-1446,-710) scale(1,1)"><path fill="none" stroke="#000000" d="M 2160 1537 L 2551 1537" stroke-miterlimit="10"></path></g><g transform="translate(-1446,-710) scale(1,1)"><path fill="none" stroke="#000000" d="M 2160 1547 L 2551 1547" stroke-miterlimit="10"></path></g><g transform="translate(-1446,-710) scale(1,1)"><g><path fill="none" stroke="none"></path><text fill="#000000" stroke="none" font-family="Arial" font-size="13px" font-style="normal" font-weight="bold" text-decoration="none" x="2304.5" y="1531.5">Central_computer</text></g></g><g transform="translate(-1446,-710) scale(1,1)"><g><path fill="none" stroke="none"></path><text fill="#000000" stroke="none" font-family="Arial" font-size="13px" font-style="normal" font-weight="normal" text-decoration="none" x="2165" y="1564.5">+registerPatient(Form f: in): bool</text></g></g><g transform="translate(-1446,-710) scale(1,1)"><g><path fill="none" stroke="none"></path><text fill="#000000" stroke="none" font-family="Arial" font-size="13px" font-style="normal" font-weight="normal" text-decoration="none" x="2165" y="1579.5">+registerVisit(String registrationNumber: in, String doctor: in): int</text></g></g><g transform="translate(-1446,-710) scale(1,1)"><g><path fill="none" stroke="none"></path><text fill="#000000" stroke="none" font-family="Arial" font-size="13px" font-style="normal" font-weight="normal" text-decoration="none" x="2165" y="1594.5">+markVisit(registrationNum: String, doctor: String): bool</text></g></g><g transform="translate(-1446,-710) scale(1,1)"><g><path fill="none" stroke="none"></path><text fill="#000000" stroke="none" font-family="Arial" font-size="13px" font-style="normal" font-weight="normal" text-decoration="none" x="2165" y="1609.5">+storePrescription(p: Prescription): bool</text></g></g><g transform="translate(-1446,-710) scale(1,1)"><g><path fill="none" stroke="none"></path><text fill="#000000" stroke="none" font-family="Arial" font-size="13px" font-style="normal" font-weight="normal" text-decoration="none" x="2165" y="1624.5">+storeReceipt(): bool</text></g></g><g transform="translate(-1446,-710) scale(1,1)"><g><path fill="none" stroke="none"></path><text fill="#000000" stroke="none" font-family="Arial" font-size="13px" font-style="normal" font-weight="normal" text-decoration="none" x="2165" y="1639.5">+storeFeedback(details: String): bool</text></g></g><g transform="translate(-1446,-710) scale(1,1)"><rect fill="#C0C0C0" stroke="none" x="2663" y="1591" width="470" height="57" opacity="0.2"></rect></g><g transform="translate(-1446,-710) scale(1,1)"><rect fill="#ffffff" stroke="none" x="2656" y="1584" width="470" height="57"></rect></g><g transform="translate(-1446,-710) scale(1,1)"><path fill="none" stroke="#000000" d="M 2656 1584 L 3126 1584 L 3126 1641 L 2656 1641 L 2656 1584 Z Z" stroke-miterlimit="10"></path></g><g transform="translate(-1446,-710) scale(1,1)"><path fill="none" stroke="#000000" d="M 2656 1609 L 3126 1609" stroke-miterlimit="10"></path></g><g transform="translate(-1446,-710) scale(1,1)"><path fill="none" stroke="#000000" d="M 2656 1619 L 3126 1619" stroke-miterlimit="10"></path></g><g transform="translate(-1446,-710) scale(1,1)"><g><path fill="none" stroke="none"></path><text fill="#000000" stroke="none" font-family="Arial" font-size="13px" font-style="normal" font-weight="bold" text-decoration="none" x="2839" y="1603.5">Database_handler</text></g></g><g transform="translate(-1446,-710) scale(1,1)"><g><path fill="none" stroke="none"></path><text fill="#000000" stroke="none" font-family="Arial" font-size="13px" font-style="normal" font-weight="normal" text-decoration="none" x="2661" y="1636.5">+updateDataBase(String database: in, Int identifier: in, String keyValuePairs: in)</text></g></g><g transform="translate(-1446,-710) scale(1,1)"><rect fill="#C0C0C0" stroke="none" x="1575" y="1167" width="306" height="205" opacity="0.2"></rect></g><g transform="translate(-1446,-710) scale(1,1)"><rect fill="#ffffff" stroke="none" x="1568" y="1160" width="306" height="205"></rect></g><g transform="translate(-1446,-710) scale(1,1)"><path fill="none" stroke="#000000" d="M 1568 1160 L 1874 1160 L 1874 1365 L 1568 1365 L 1568 1160 Z Z" stroke-miterlimit="10"></path></g><g transform="translate(-1446,-710) scale(1,1)"><path fill="none" stroke="#000000" d="M 1568 1185 L 1874 1185" stroke-miterlimit="10"></path></g><g transform="translate(-1446,-710) scale(1,1)"><path fill="none" stroke="#000000" d="M 1568 1343 L 1874 1343" stroke-miterlimit="10"></path></g><g transform="translate(-1446,-710) scale(1,1)"><g><path fill="none" stroke="none"></path><text fill="#000000" stroke="none" font-family="Arial" font-size="13px" font-style="normal" font-weight="bold" text-decoration="none" x="1703.5" y="1179.5">Ticket</text></g></g><g transform="translate(-1446,-710) scale(1,1)"><g><path fill="none" stroke="none"></path><text fill="#000000" stroke="none" font-family="Arial" font-size="13px" font-style="normal" font-weight="normal" text-decoration="none" x="1573" y="1202.5">+number: Int</text></g></g><g transform="translate(-1446,-710) scale(1,1)"><g><path fill="none" stroke="none"></path><text fill="#000000" stroke="none" font-family="Arial" font-size="13px" font-style="normal" font-weight="normal" text-decoration="none" x="1573" y="1217.5">+tokenNum: Int</text></g></g><g transform="translate(-1446,-710) scale(1,1)"><g><path fill="none" stroke="none"></path><text fill="#000000" stroke="none" font-family="Arial" font-size="13px" font-style="normal" font-weight="normal" text-decoration="none" x="1573" y="1232.5">+VisitNum: Int</text></g></g><g transform="translate(-1446,-710) scale(1,1)"><g><path fill="none" stroke="none"></path><text fill="#000000" stroke="none" font-family="Arial" font-size="13px" font-style="normal" font-weight="normal" text-decoration="none" x="1573" y="1247.5">+patientregistrationNum: Int</text></g></g><g transform="translate(-1446,-710) scale(1,1)"><g><path fill="none" stroke="none"></path><text fill="#000000" stroke="none" font-family="Arial" font-size="13px" font-style="normal" font-weight="normal" text-decoration="none" x="1573" y="1262.5">+name: String</text></g></g><g transform="translate(-1446,-710) scale(1,1)"><g><path fill="none" stroke="none"></path><text fill="#000000" stroke="none" font-family="Arial" font-size="13px" font-style="normal" font-weight="normal" text-decoration="none" x="1573" y="1277.5">+Age: Int</text></g></g><g transform="translate(-1446,-710) scale(1,1)"><g><path fill="none" stroke="none"></path><text fill="#000000" stroke="none" font-family="Arial" font-size="13px" font-style="normal" font-weight="normal" text-decoration="none" x="1573" y="1292.5">+gender: Char</text></g></g><g transform="translate(-1446,-710) scale(1,1)"><g><path fill="none" stroke="none"></path><text fill="#000000" stroke="none" font-family="Arial" font-size="13px" font-style="normal" font-weight="normal" text-decoration="none" x="1573" y="1307.5">+dateOfBooking: int</text></g></g><g transform="translate(-1446,-710) scale(1,1)"><g><path fill="none" stroke="none"></path><text fill="#000000" stroke="none" font-family="Arial" font-size="13px" font-style="normal" font-weight="normal" text-decoration="none" x="1573" y="1322.5">+doctor: String</text></g></g><g transform="translate(-1446,-710) scale(1,1)"><g><path fill="none" stroke="none"></path><text fill="#000000" stroke="none" font-family="Arial" font-size="13px" font-style="normal" font-weight="normal" text-decoration="none" x="1573" y="1337.5">+doctorRoomNumber: Int</text></g></g><g transform="translate(-1446,-710) scale(1,1)"><g><path fill="none" stroke="none"></path><text fill="#000000" stroke="none" font-family="Arial" font-size="13px" font-style="normal" font-weight="normal" text-decoration="none" x="1573" y="1360.5">+updateDetails(String key: in, String value: in): bool</text></g></g><g transform="translate(-1446,-710) scale(1,1)"><rect fill="#C0C0C0" stroke="none" x="2439" y="943" width="245" height="190" opacity="0.2"></rect></g><g transform="translate(-1446,-710) scale(1,1)"><rect fill="#ffffff" stroke="none" x="2432" y="936" width="245" height="190"></rect></g><g transform="translate(-1446,-710) scale(1,1)"><path fill="none" stroke="#000000" d="M 2432 936 L 2677 936 L 2677 1126 L 2432 1126 L 2432 936 Z Z" stroke-miterlimit="10"></path></g><g transform="translate(-1446,-710) scale(1,1)"><path fill="none" stroke="#000000" d="M 2432 961 L 2677 961" stroke-miterlimit="10"></path></g><g transform="translate(-1446,-710) scale(1,1)"><path fill="none" stroke="#000000" d="M 2432 999 L 2677 999" stroke-miterlimit="10"></path></g><g transform="translate(-1446,-710) scale(1,1)"><g><path fill="none" stroke="none"></path><text fill="#000000" stroke="none" font-family="Arial" font-size="13px" font-style="normal" font-weight="bold" text-decoration="none" x="2535.5" y="955.5">Doctor</text></g></g><g transform="translate(-1446,-710) scale(1,1)"><g><path fill="none" stroke="none"></path><text fill="#000000" stroke="none" font-family="Arial" font-size="13px" font-style="normal" font-weight="normal" text-decoration="none" x="2437" y="978.5">-numOfVisits: Int</text></g></g><g transform="translate(-1446,-710) scale(1,1)"><g><path fill="none" stroke="none"></path><text fill="#000000" stroke="none" font-family="Arial" font-size="13px" font-style="normal" font-weight="normal" text-decoration="none" x="2437" y="993.5">-p: Prescription</text></g></g><g transform="translate(-1446,-710) scale(1,1)"><g><path fill="none" stroke="none"></path><text fill="#000000" stroke="none" font-family="Arial" font-size="13px" font-style="normal" font-weight="normal" text-decoration="none" x="2437" y="1016.5">+incrementVisits(): void</text></g></g><g transform="translate(-1446,-710) scale(1,1)"><g><path fill="none" stroke="none"></path><text fill="#000000" stroke="none" font-family="Arial" font-size="13px" font-style="normal" font-weight="normal" text-decoration="none" x="2437" y="1031.5">+markVisit(): bool</text></g></g><g transform="translate(-1446,-710) scale(1,1)"><g><path fill="none" stroke="none"></path><text fill="#000000" stroke="none" font-family="Arial" font-size="13px" font-style="normal" font-weight="normal" text-decoration="none" x="2437" y="1046.5">+makePrescription(): bool</text></g></g><g transform="translate(-1446,-710) scale(1,1)"><g><path fill="none" stroke="none"></path><text fill="#000000" stroke="none" font-family="Arial" font-size="13px" font-style="normal" font-weight="normal" text-decoration="none" x="2437" y="1061.5">+getMedicine(): void</text></g></g><g transform="translate(-1446,-710) scale(1,1)"><g><path fill="none" stroke="none"></path><text fill="#000000" stroke="none" font-family="Arial" font-size="13px" font-style="normal" font-weight="normal" text-decoration="none" x="2437" y="1076.5">+getNextVisitTime(): void</text></g></g><g transform="translate(-1446,-710) scale(1,1)"><g><path fill="none" stroke="none"></path><text fill="#000000" stroke="none" font-family="Arial" font-size="13px" font-style="normal" font-weight="normal" text-decoration="none" x="2437" y="1091.5">+shiftPatientToWard(String s: ward): void</text></g></g><g transform="translate(-1446,-710) scale(1,1)"><g><path fill="none" stroke="none"></path><text fill="#000000" stroke="none" font-family="Arial" font-size="13px" font-style="normal" font-weight="normal" text-decoration="none" x="2437" y="1106.5">+sendReceipt(String Counter: in): bool</text></g></g><g transform="translate(-1446,-710) scale(1,1)"><g><path fill="none" stroke="none"></path><text fill="#000000" stroke="none" font-family="Arial" font-size="13px" font-style="normal" font-weight="normal" text-decoration="none" x="2437" y="1121.5">+printPrescription(): bool</text></g></g><g transform="translate(-1446,-710) scale(1,1)"><rect fill="#C0C0C0" stroke="none" x="2711" y="1055" width="156" height="132" opacity="0.2"></rect></g><g transform="translate(-1446,-710) scale(1,1)"><rect fill="#ffffff" stroke="none" x="2704" y="1048" width="156" height="132"></rect></g><g transform="translate(-1446,-710) scale(1,1)"><path fill="none" stroke="#000000" d="M 2704 1048 L 2860 1048 L 2860 1180 L 2704 1180 L 2704 1048 Z Z" stroke-miterlimit="10"></path></g><g transform="translate(-1446,-710) scale(1,1)"><path fill="none" stroke="#000000" d="M 2704 1073 L 2860 1073" stroke-miterlimit="10"></path></g><g transform="translate(-1446,-710) scale(1,1)"><path fill="none" stroke="#000000" d="M 2704 1171 L 2860 1171" stroke-miterlimit="10"></path></g><g transform="translate(-1446,-710) scale(1,1)"><g><path fill="none" stroke="none"></path><text fill="#000000" stroke="none" font-family="Arial" font-size="13px" font-style="normal" font-weight="bold" text-decoration="none" x="2747.5" y="1067.5">Prescription</text></g></g><g transform="translate(-1446,-710) scale(1,1)"><g><path fill="none" stroke="none"></path><text fill="#000000" stroke="none" font-family="Arial" font-size="13px" font-style="normal" font-weight="normal" text-decoration="none" x="2709" y="1090.5">+shiftedWard: String</text></g></g><g transform="translate(-1446,-710) scale(1,1)"><g><path fill="none" stroke="none"></path><text fill="#000000" stroke="none" font-family="Arial" font-size="13px" font-style="normal" font-weight="normal" text-decoration="none" x="2709" y="1105.5">+medicineNames: String</text></g></g><g transform="translate(-1446,-710) scale(1,1)"><g><path fill="none" stroke="none"></path><text fill="#000000" stroke="none" font-family="Arial" font-size="13px" font-style="normal" font-weight="normal" text-decoration="none" x="2709" y="1120.5">+medicineAmount: String</text></g></g><g transform="translate(-1446,-710) scale(1,1)"><g><path fill="none" stroke="none"></path><text fill="#000000" stroke="none" font-family="Arial" font-size="13px" font-style="normal" font-weight="normal" text-decoration="none" x="2709" y="1135.5">+nextVisitTime: String</text></g></g><g transform="translate(-1446,-710) scale(1,1)"><g><path fill="none" stroke="none"></path><text fill="#000000" stroke="none" font-family="Arial" font-size="13px" font-style="normal" font-weight="normal" text-decoration="none" x="2709" y="1150.5">+prescriptionNumber: Int</text></g></g><g transform="translate(-1446,-710) scale(1,1)"><g><path fill="none" stroke="none"></path><text fill="#000000" stroke="none" font-family="Arial" font-size="13px" font-style="normal" font-weight="normal" text-decoration="none" x="2709" y="1165.5">+doctor: String</text></g></g><g transform="translate(-1446,-710) scale(1,1)"><rect fill="#C0C0C0" stroke="none" x="2135" y="1207" width="601" height="175" opacity="0.2"></rect></g><g transform="translate(-1446,-710) scale(1,1)"><rect fill="#ffffff" stroke="none" x="2128" y="1200" width="601" height="175"></rect></g><g transform="translate(-1446,-710) scale(1,1)"><path fill="none" stroke="#000000" d="M 2128 1200 L 2729 1200 L 2729 1375 L 2128 1375 L 2128 1200 Z Z" stroke-miterlimit="10"></path></g><g transform="translate(-1446,-710) scale(1,1)"><path fill="none" stroke="#000000" d="M 2128 1225 L 2729 1225" stroke-miterlimit="10"></path></g><g transform="translate(-1446,-710) scale(1,1)"><path fill="none" stroke="#000000" d="M 2128 1278 L 2729 1278" stroke-miterlimit="10"></path></g><g transform="translate(-1446,-710) scale(1,1)"><g><path fill="none" stroke="none"></path><text fill="#000000" stroke="none" font-family="Arial" font-size="13px" font-style="normal" font-weight="bold" text-decoration="none" x="2404.5" y="1219.5">Chemist</text></g></g><g transform="translate(-1446,-710) scale(1,1)"><g><path fill="none" stroke="none"></path><text fill="#000000" stroke="none" font-family="Arial" font-size="13px" font-style="normal" font-weight="normal" text-decoration="none" x="2133" y="1242.5">-numPurchases: Int</text></g></g><g transform="translate(-1446,-710) scale(1,1)"><g><path fill="none" stroke="none"></path><text fill="#000000" stroke="none" font-family="Arial" font-size="13px" font-style="normal" font-weight="normal" text-decoration="none" x="2133" y="1257.5">-moneyCollected: Int</text></g></g><g transform="translate(-1446,-710) scale(1,1)"><g><path fill="none" stroke="none"></path><text fill="#000000" stroke="none" font-family="Arial" font-size="13px" font-style="normal" font-weight="normal" text-decoration="none" x="2133" y="1272.5">+r: Receipt</text></g></g><g transform="translate(-1446,-710) scale(1,1)"><g><path fill="none" stroke="none"></path><text fill="#000000" stroke="none" font-family="Arial" font-size="13px" font-style="normal" font-weight="normal" text-decoration="none" x="2133" y="1295.5">+incrementNumPurchased(): void</text></g></g><g transform="translate(-1446,-710) scale(1,1)"><g><path fill="none" stroke="none"></path><text fill="#000000" stroke="none" font-family="Arial" font-size="13px" font-style="normal" font-weight="normal" text-decoration="none" x="2133" y="1310.5">+increaseMoneyCollected(money: Int): void</text></g></g><g transform="translate(-1446,-710) scale(1,1)"><g><path fill="none" stroke="none"></path><text fill="#000000" stroke="none" font-family="Arial" font-size="13px" font-style="normal" font-weight="normal" text-decoration="none" x="2133" y="1325.5">+searchPrescriptionbyName(name: String): Prescription</text></g></g><g transform="translate(-1446,-710) scale(1,1)"><g><path fill="none" stroke="none"></path><text fill="#000000" stroke="none" font-family="Arial" font-size="13px" font-style="normal" font-weight="normal" text-decoration="none" x="2133" y="1340.5">+makeReceipt(p: Prescription): bool</text></g></g><g transform="translate(-1446,-710) scale(1,1)"><g><path fill="none" stroke="none"></path><text fill="#000000" stroke="none" font-family="Arial" font-size="13px" font-style="normal" font-weight="normal" text-decoration="none" x="2133" y="1355.5">+updateReceipt(command: String, itemNum: Int, nameMedicine: String, quantityMedicine: String): void</text></g></g><g transform="translate(-1446,-710) scale(1,1)"><g><path fill="none" stroke="none"></path><text fill="#000000" stroke="none" font-family="Arial" font-size="13px" font-style="normal" font-weight="normal" text-decoration="none" x="2133" y="1370.5">+printReceipt(): bool</text></g></g><g transform="translate(-1446,-710) scale(1,1)"><rect fill="#C0C0C0" stroke="none" x="2503" y="1391" width="161" height="117" opacity="0.2"></rect></g><g transform="translate(-1446,-710) scale(1,1)"><rect fill="#ffffff" stroke="none" x="2496" y="1384" width="161" height="117"></rect></g><g transform="translate(-1446,-710) scale(1,1)"><path fill="none" stroke="#000000" d="M 2496 1384 L 2657 1384 L 2657 1501 L 2496 1501 L 2496 1384 Z Z" stroke-miterlimit="10"></path></g><g transform="translate(-1446,-710) scale(1,1)"><path fill="none" stroke="#000000" d="M 2496 1409 L 2657 1409" stroke-miterlimit="10"></path></g><g transform="translate(-1446,-710) scale(1,1)"><path fill="none" stroke="#000000" d="M 2496 1492 L 2657 1492" stroke-miterlimit="10"></path></g><g transform="translate(-1446,-710) scale(1,1)"><g><path fill="none" stroke="none"></path><text fill="#000000" stroke="none" font-family="Arial" font-size="13px" font-style="normal" font-weight="bold" text-decoration="none" x="2554.5" y="1403.5">Receipt</text></g></g><g transform="translate(-1446,-710) scale(1,1)"><g><path fill="none" stroke="none"></path><text fill="#000000" stroke="none" font-family="Arial" font-size="13px" font-style="normal" font-weight="normal" text-decoration="none" x="2501" y="1426.5">+medicineName: String*</text></g></g><g transform="translate(-1446,-710) scale(1,1)"><g><path fill="none" stroke="none"></path><text fill="#000000" stroke="none" font-family="Arial" font-size="13px" font-style="normal" font-weight="normal" text-decoration="none" x="2501" y="1441.5">+medicineAmount: String*</text></g></g><g transform="translate(-1446,-710) scale(1,1)"><g><path fill="none" stroke="none"></path><text fill="#000000" stroke="none" font-family="Arial" font-size="13px" font-style="normal" font-weight="normal" text-decoration="none" x="2501" y="1456.5">+totalAmount: Int</text></g></g><g transform="translate(-1446,-710) scale(1,1)"><g><path fill="none" stroke="none"></path><text fill="#000000" stroke="none" font-family="Arial" font-size="13px" font-style="normal" font-weight="normal" text-decoration="none" x="2501" y="1471.5">+prescriptionNumber: Int</text></g></g><g transform="translate(-1446,-710) scale(1,1)"><g><path fill="none" stroke="none"></path><text fill="#000000" stroke="none" font-family="Arial" font-size="13px" font-style="normal" font-weight="normal" text-decoration="none" x="2501" y="1486.5">+doctor: String</text></g></g><g transform="translate(-1446,-710) scale(1,1)"><rect fill="#C0C0C0" stroke="none" x="2551" y="1831" width="235" height="87" opacity="0.2"></rect></g><g transform="translate(-1446,-710) scale(1,1)"><rect fill="#ffffff" stroke="none" x="2544" y="1824" width="235" height="87"></rect></g><g transform="translate(-1446,-710) scale(1,1)"><path fill="none" stroke="#000000" d="M 2544 1824 L 2779 1824 L 2779 1911 L 2544 1911 L 2544 1824 Z Z" stroke-miterlimit="10"></path></g><g transform="translate(-1446,-710) scale(1,1)"><path fill="none" stroke="#000000" d="M 2544 1849 L 2779 1849" stroke-miterlimit="10"></path></g><g transform="translate(-1446,-710) scale(1,1)"><path fill="none" stroke="#000000" d="M 2544 1859 L 2779 1859" stroke-miterlimit="10"></path></g><g transform="translate(-1446,-710) scale(1,1)"><g><path fill="none" stroke="none"></path><text fill="#000000" stroke="none" font-family="Arial" font-size="13px" font-style="normal" font-weight="bold" text-decoration="none" x="2642.5" y="1843.5">Printer</text></g></g><g transform="translate(-1446,-710) scale(1,1)"><g><path fill="none" stroke="none"></path><text fill="#000000" stroke="none" font-family="Arial" font-size="13px" font-style="normal" font-weight="normal" text-decoration="none" x="2549" y="1876.5">+printReceipt(r: Receipt): bool</text></g></g><g transform="translate(-1446,-710) scale(1,1)"><g><path fill="none" stroke="none"></path><text fill="#000000" stroke="none" font-family="Arial" font-size="13px" font-style="normal" font-weight="normal" text-decoration="none" x="2549" y="1891.5">+printPrescription(p: Prescription): bool</text></g></g><g transform="translate(-1446,-710) scale(1,1)"><g><path fill="none" stroke="none"></path><text fill="#000000" stroke="none" font-family="Arial" font-size="13px" font-style="normal" font-weight="normal" text-decoration="none" x="2549" y="1906.5">+printticket(t: Ticket): bool</text></g></g><g transform="translate(-1446,-710) scale(1,1)"><rect fill="#C0C0C0" stroke="none" x="2823" y="1807" width="185" height="132" opacity="0.2"></rect></g><g transform="translate(-1446,-710) scale(1,1)"><rect fill="#ffffff" stroke="none" x="2816" y="1800" width="185" height="132"></rect></g><g transform="translate(-1446,-710) scale(1,1)"><path fill="none" stroke="#000000" d="M 2816 1800 L 3001 1800 L 3001 1932 L 2816 1932 L 2816 1800 Z Z" stroke-miterlimit="10"></path></g><g transform="translate(-1446,-710) scale(1,1)"><path fill="none" stroke="#000000" d="M 2816 1825 L 3001 1825" stroke-miterlimit="10"></path></g><g transform="translate(-1446,-710) scale(1,1)"><path fill="none" stroke="#000000" d="M 2816 1835 L 3001 1835" stroke-miterlimit="10"></path></g><g transform="translate(-1446,-710) scale(1,1)"><g><path fill="none" stroke="none"></path><text fill="#000000" stroke="none" font-family="Arial" font-size="13px" font-style="normal" font-weight="bold" text-decoration="none" x="2880" y="1819.5">Feedback</text></g></g><g transform="translate(-1446,-710) scale(1,1)"><g><path fill="none" stroke="none"></path><text fill="#000000" stroke="none" font-family="Arial" font-size="13px" font-style="normal" font-weight="normal" text-decoration="none" x="2821" y="1852.5">+getDoctorReview(): void</text></g></g><g transform="translate(-1446,-710) scale(1,1)"><g><path fill="none" stroke="none"></path><text fill="#000000" stroke="none" font-family="Arial" font-size="13px" font-style="normal" font-weight="normal" text-decoration="none" x="2821" y="1867.5">+getChemistReview(): void</text></g></g><g transform="translate(-1446,-710) scale(1,1)"><g><path fill="none" stroke="none"></path><text fill="#000000" stroke="none" font-family="Arial" font-size="13px" font-style="normal" font-weight="normal" text-decoration="none" x="2821" y="1882.5">+getReceptionistReview(): void</text></g></g><g transform="translate(-1446,-710) scale(1,1)"><g><path fill="none" stroke="none"></path><text fill="#000000" stroke="none" font-family="Arial" font-size="13px" font-style="normal" font-weight="normal" text-decoration="none" x="2821" y="1897.5">+anySuggestions(): void</text></g></g><g transform="translate(-1446,-710) scale(1,1)"><g><path fill="none" stroke="none"></path><text fill="#000000" stroke="none" font-family="Arial" font-size="13px" font-style="normal" font-weight="normal" text-decoration="none" x="2821" y="1912.5">+happinessIndex(): void</text></g></g><g transform="translate(-1446,-710) scale(1,1)"><g><path fill="none" stroke="none"></path><text fill="#000000" stroke="none" font-family="Arial" font-size="13px" font-style="normal" font-weight="normal" text-decoration="none" x="2821" y="1927.5">+sendToDatabase(): bool</text></g></g><g transform="translate(-1446,-710) scale(1,1)"><rect fill="#C0C0C0" stroke="none" x="2343" y="727" width="49" height="44" opacity="0.2"></rect></g><g transform="translate(-1446,-710) scale(1,1)"><rect fill="#ffffff" stroke="none" x="2336" y="720" width="49" height="44"></rect></g><g transform="translate(-1446,-710) scale(1,1)"><path fill="none" stroke="#000000" d="M 2336 720 L 2385 720 L 2385 764 L 2336 764 L 2336 720 Z Z" stroke-miterlimit="10"></path></g><g transform="translate(-1446,-710) scale(1,1)"><path fill="none" stroke="#000000" d="M 2336 745 L 2385 745" stroke-miterlimit="10"></path></g><g transform="translate(-1446,-710) scale(1,1)"><path fill="none" stroke="#000000" d="M 2336 755 L 2385 755" stroke-miterlimit="10"></path></g><g transform="translate(-1446,-710) scale(1,1)"><g><path fill="none" stroke="none"></path><text fill="#000000" stroke="none" font-family="Arial" font-size="13px" font-style="normal" font-weight="bold" text-decoration="none" x="2347.5" y="739.5">Staff</text></g></g><g transform="translate(-1446,-710) scale(1,1)"><path fill="none" stroke="#000000" d="M 2252 863 L 2339 765" stroke-miterlimit="10"></path></g><g transform="translate(-1446,-710) scale(1,1)"><path fill="#FFFFFF" stroke="none" d="M 2331.8022111989126 785.7892240445607 L 2339 765 L 2319.210193431687 774.6105960267178"></path></g><g transform="translate(-1446,-710) scale(1,1)"><path fill="none" stroke="#000000" d="M 2331.8022111989126 785.7892240445607 L 2339 765 L 2319.210193431687 774.6105960267178 L 2331.8022111989126 785.7892240445607" stroke-miterlimit="10"></path></g><g transform="translate(-1446,-710) scale(1,1)"><path fill="none" stroke="#000000" d="M 2490 935 L 2375 765" stroke-miterlimit="10"></path></g><g transform="translate(-1446,-710) scale(1,1)"><path fill="#FFFFFF" stroke="none" d="M 2393.3618313164693 777.1178855707394 L 2375 765 L 2379.415136378166 786.5524144995912"></path></g><g transform="translate(-1446,-710) scale(1,1)"><path fill="none" stroke="#000000" d="M 2393.3618313164693 777.1178855707394 L 2375 765 L 2379.415136378166 786.5524144995912 L 2393.3618313164693 777.1178855707394" stroke-miterlimit="10"></path></g><g transform="translate(-1446,-710) scale(1,1)"><path fill="none" stroke="#000000" d="M 2417 1199 L 2363 765" stroke-miterlimit="10"></path></g><g transform="translate(-1446,-710) scale(1,1)"><path fill="#FFFFFF" stroke="none" d="M 2373.8642227918017 784.1303074499627 L 2363 765 L 2357.154995484352 786.2093357324565"></path></g><g transform="translate(-1446,-710) scale(1,1)"><path fill="none" stroke="#000000" d="M 2373.8642227918017 784.1303074499627 L 2363 765 L 2357.154995484352 786.2093357324565 L 2373.8642227918017 784.1303074499627" stroke-miterlimit="10"></path></g><g transform="translate(-1446,-710) scale(1,1)"><path fill="none" stroke="#000000" d="M 1895 1007 L 1763 995" stroke-miterlimit="10"></path></g><g transform="translate(-1446,-710) scale(1,1)"><g><path fill="none" stroke="none"></path><text fill="#000000" stroke="none" font-family="Arial" font-size="13px" font-style="normal" font-weight="normal" text-decoration="none" x="1742.5" y="1018.5">+data structure</text></g></g></g></svg>